<svg width="50" height="50" viewBox="0 0 50 50" fill="none" xmlns="http://www.w3.org/2000/svg">
<g clip-path="url(#clip0_57_187)">
<path d="M25 20.8333C28.4518 20.8333 31.25 18.0351 31.25 14.5833C31.25 11.1315 28.4518 8.33331 25 8.33331C21.5482 8.33331 18.75 11.1315 18.75 14.5833C18.75 18.0351 21.5482 20.8333 25 20.8333Z" stroke="black" stroke-width="2" stroke-linecap="round" stroke-linejoin="round"/>
<path d="M35.4167 39.5833C38.8684 39.5833 41.6667 36.7851 41.6667 33.3333C41.6667 29.8815 38.8684 27.0833 35.4167 27.0833C31.9649 27.0833 29.1667 29.8815 29.1667 33.3333C29.1667 36.7851 31.9649 39.5833 35.4167 39.5833Z" stroke="black" stroke-width="2" stroke-linecap="round" stroke-linejoin="round"/>
<path d="M14.5833 39.5833C18.0351 39.5833 20.8333 36.7851 20.8333 33.3333C20.8333 29.8815 18.0351 27.0833 14.5833 27.0833C11.1316 27.0833 8.33334 29.8815 8.33334 33.3333C8.33334 36.7851 11.1316 39.5833 14.5833 39.5833Z" stroke="black" stroke-width="2" stroke-linecap="round" stroke-linejoin="round"/>
<path d="M40 12V26" stroke="black" stroke-width="2" stroke-linecap="round" stroke-linejoin="round"/>
<path d="M33 19H47" stroke="black" stroke-width="2" stroke-linecap="round" stroke-linejoin="round"/>
</g>
<defs>
<clipPath id="clip0_57_187">
<rect width="50" height="50" fill="white"/>
</clipPath>
</defs>
</svg>
