<svg width="50" height="50" viewBox="0 0 50 50" fill="none" xmlns="http://www.w3.org/2000/svg">
<path d="M18.75 22.9167C23.3524 22.9167 27.0833 19.1857 27.0833 14.5833C27.0833 9.98096 23.3524 6.25 18.75 6.25C14.1476 6.25 10.4167 9.98096 10.4167 14.5833C10.4167 19.1857 14.1476 22.9167 18.75 22.9167Z" stroke="black" stroke-width="3" stroke-linecap="round" stroke-linejoin="round"/>
<path d="M6.25 43.75V39.5833C6.25 37.3732 7.12797 35.2536 8.69078 33.6908C10.2536 32.128 12.3732 31.25 14.5833 31.25H22.9167C25.1268 31.25 27.2464 32.128 28.8092 33.6908C30.372 35.2536 31.25 37.3732 31.25 39.5833V43.75" stroke="black" stroke-width="3" stroke-linecap="round" stroke-linejoin="round"/>
<path d="M33.3333 22.9167H45.8333M39.5833 16.6667V29.1667" stroke="black" stroke-width="3" stroke-linecap="round" stroke-linejoin="round"/>
</svg>
