<svg xmlns="http://www.w3.org/2000/svg" width="500" height="500" viewBox="0 0 500 500" fill="none">
    <path fill-rule="evenodd" clip-rule="evenodd" d="M123.495 39.9333C123.495 38.6 122.029 36.0667 120.162 34.3333C118.429 32.4667 115.762 31 114.429 31C108.695 31 106.429 35.1333 101.629 54.3333C76.4287 156.067 63.7621 264.6 65.0954 369L65.4954 406.333L69.0954 413.133C73.8954 422.2 81.7621 429 90.2954 431.533C110.695 437.667 143.629 442.467 176.295 444.2L196.295 445.267L209.629 452.2C228.162 462.067 243.762 468.333 249.895 468.333C256.962 468.333 263.495 465.933 286.162 454.733L305.495 445.133L326.829 444.067C366.029 442.067 410.695 433.667 420.029 426.467C426.829 421.267 430.962 415.4 433.362 407C435.229 400.867 435.495 393 435.362 358.333C435.229 335.533 434.562 307.4 434.029 295.667C429.895 214.467 417.762 131.267 398.695 54.3333C393.895 34.8667 391.629 31 385.495 31C380.429 31 378.162 35.4 373.495 55.5333C365.762 88.7333 351.495 132.6 346.562 137.933C343.762 141.133 340.162 141 324.162 137.133C277.895 125.8 219.095 125.933 173.495 137.667C159.762 141.133 156.295 141.133 153.095 137.133C147.895 130.467 123.495 50.4667 123.495 39.9333ZM98.562 299.8C96.4287 303.133 96.4287 304.333 98.562 322.2C98.6981 323.343 98.823 324.422 98.9412 325.443C99.8343 333.155 100.343 337.548 102.353 341.09C105.015 345.78 110.31 348.975 122.615 356.401C123.898 357.175 125.256 357.995 126.695 358.867L145.229 370.067L165.362 367.134C166.035 367.036 166.692 366.94 167.334 366.847C184.597 364.339 190.624 363.464 194.925 360.266C197.232 358.551 199.042 356.167 201.824 352.504C202.063 352.19 202.308 351.867 202.562 351.534C210.695 340.6 211.895 336.067 207.895 331.133C206.162 329.267 190.962 323.667 156.695 312.333C129.762 303.534 106.295 296.333 104.295 296.333C102.029 296.333 100.162 297.534 98.562 299.8ZM290.162 337.667C290.162 330.2 292.562 329.134 342.829 312.467C369.229 303.8 392.429 296.6 394.562 296.467C399.095 296.334 403.495 300.6 403.495 305.267C403.495 307.4 402.562 316.334 401.362 325.267C399.762 337.267 398.562 342.2 396.695 343.8C391.629 348.334 356.162 369.667 353.495 369.667C349.362 369.534 309.762 363.4 307.495 362.334C303.629 360.734 290.162 341.4 290.162 337.667Z" fill="black"/>
</svg>