<svg width="50" height="50" viewBox="0 0 50 50" fill="none" xmlns="http://www.w3.org/2000/svg">
<path d="M14.5833 14.5833C16.8845 14.5833 18.75 12.7179 18.75 10.4167C18.75 8.11548 16.8845 6.25 14.5833 6.25C12.2821 6.25 10.4167 8.11548 10.4167 10.4167C10.4167 12.7179 12.2821 14.5833 14.5833 14.5833Z" stroke="black" stroke-width="3" stroke-linecap="round" stroke-linejoin="round"/>
<path d="M10.4167 45.8334V35.4167L8.33334 33.3334V25C8.33334 24.4475 8.55284 23.9176 8.94354 23.5269C9.33424 23.1362 9.86414 22.9167 10.4167 22.9167H18.75C19.3025 22.9167 19.8324 23.1362 20.2231 23.5269C20.6138 23.9176 20.8333 24.4475 20.8333 25V33.3334L18.75 35.4167V45.8334" stroke="black" stroke-width="3" stroke-linecap="round" stroke-linejoin="round"/>
<path d="M35.4167 14.5833C37.7179 14.5833 39.5833 12.7179 39.5833 10.4167C39.5833 8.11548 37.7179 6.25 35.4167 6.25C33.1155 6.25 31.25 8.11548 31.25 10.4167C31.25 12.7179 33.1155 14.5833 35.4167 14.5833Z" stroke="black" stroke-width="3" stroke-linecap="round" stroke-linejoin="round"/>
<path d="M31.25 45.8334V37.5H27.0833L31.25 25C31.25 24.4475 31.4695 23.9176 31.8602 23.5269C32.2509 23.1362 32.7808 22.9167 33.3333 22.9167H37.5C38.0525 22.9167 38.5824 23.1362 38.9732 23.5269C39.3639 23.9176 39.5833 24.4475 39.5833 25L43.75 37.5H39.5833V45.8334" stroke="black" stroke-width="3" stroke-linecap="round" stroke-linejoin="round"/>
</svg>
